<svg width="24" height="24" viewBox="0 0 24 24" fill="none" xmlns="http://www.w3.org/2000/svg">
<g id="clarity:heart-line" opacity="0.8" clip-path="url(#clip0_481_260)">
<path id="Vector" d="M12 21.6199C11.8527 21.6194 11.7097 21.5702 11.5934 21.4799C7.8867 18.5999 5.33337 16.1199 3.5467 13.6732C1.2667 10.5466 0.7467 7.65988 2.00003 5.09322C2.89337 3.25988 5.46003 1.75988 8.46003 2.63322C9.89039 3.04638 11.1384 3.93241 12 5.14655C12.8617 3.93241 14.1097 3.04638 15.54 2.63322C18.5334 1.77322 21.1067 3.25988 22 5.09322C23.2534 7.65988 22.7334 10.5466 20.4534 13.6732C18.6667 16.1199 16.1134 18.5999 12.4067 21.4799C12.2903 21.5702 12.1473 21.6194 12 21.6199ZM6.75337 3.71988C6.03954 3.6921 5.33161 3.85925 4.7056 4.20338C4.07958 4.54752 3.5591 5.05564 3.20003 5.67322C2.1667 7.79322 2.63337 10.1532 4.6267 12.8799C6.74508 15.6123 9.22564 18.0435 12 20.1066C14.774 18.0455 17.2545 15.6166 19.3734 12.8866C21.3734 10.1532 21.8334 7.79322 20.8 5.67988C20.1334 4.34655 18.1334 3.28655 15.9067 3.91322C15.1927 4.12422 14.5308 4.48236 13.9636 4.9646C13.3964 5.44684 12.9365 6.04249 12.6134 6.71322C12.5631 6.83549 12.4777 6.94007 12.3679 7.01367C12.2581 7.08728 12.1289 7.12657 11.9967 7.12657C11.8645 7.12657 11.7353 7.08728 11.6255 7.01367C11.5157 6.94007 11.4303 6.83549 11.38 6.71322C11.0594 6.04081 10.6002 5.44377 10.0326 4.96123C9.46507 4.47869 8.80194 4.12155 8.0867 3.91322C7.65335 3.78735 7.20462 3.72229 6.75337 3.71988Z" fill="#79533E"/>
</g>
<defs>
<clipPath id="clip0_481_260">
<rect width="24" height="24" fill="white"/>
</clipPath>
</defs>
</svg>
