<svg width="48" height="48" viewBox="0 0 48 48" fill="none" xmlns="http://www.w3.org/2000/svg">
<g id="Group 49">
<path id="Vector" d="M35.5443 30.7565H12.4557C12.3349 30.7565 12.2189 30.6992 12.1335 30.5971C12.048 30.4949 12 30.3564 12 30.212C12 30.0676 12.048 29.9291 12.1335 29.827C12.2189 29.7249 12.3349 29.6675 12.4557 29.6675H35.5443C35.6651 29.6675 35.7811 29.7249 35.8665 29.827C35.952 29.9291 36 30.0676 36 30.212C36 30.3564 35.952 30.4949 35.8665 30.5971C35.7811 30.6992 35.6651 30.7565 35.5443 30.7565ZM35.5443 38.6523H12.4557C12.3349 38.6523 12.2189 38.5949 12.1335 38.4928C12.048 38.3907 12 38.2521 12 38.1077C12 37.9633 12.048 37.8248 12.1335 37.7227C12.2189 37.6206 12.3349 37.5632 12.4557 37.5632H35.5443C35.6651 37.5632 35.7811 37.6206 35.8665 37.7227C35.952 37.8248 36 37.9633 36 38.1077C36 38.2521 35.952 38.3907 35.8665 38.4928C35.7811 38.5949 35.6651 38.6523 35.5443 38.6523ZM35.5443 46.548H12.4557C12.3349 46.548 12.2189 46.4906 12.1335 46.3885C12.048 46.2864 12 46.1479 12 46.0034C12 45.859 12.048 45.7205 12.1335 45.6184C12.2189 45.5163 12.3349 45.4589 12.4557 45.4589H35.5443C35.6651 45.4589 35.7811 45.5163 35.8665 45.6184C35.952 45.7205 36 45.859 36 46.0034C36 46.1479 35.952 46.2864 35.8665 46.3885C35.7811 46.4906 35.6651 46.548 35.5443 46.548Z" fill="black"/>
</g>
</svg>
