<svg width="18" height="18" viewBox="0 0 18 18" fill="none" xmlns="http://www.w3.org/2000/svg">
<g id="Group 29">
<g id="&#240;&#159;&#166;&#134; icon &#34;blogger&#34;">
<g id="Group">
<g id="Group_2">
<path id="Vector" d="M3.69995 6.59995V11.4C3.69995 12.277 3.91956 13.0267 4.4464 13.5535C4.97324 14.0803 5.72288 14.3 6.59995 14.3H11.4C12.277 14.3 13.0267 14.0803 13.5535 13.5535C14.0803 13.0267 14.3 12.277 14.3 11.4V8.99995C14.3 8.28381 13.7161 7.69995 13 7.69995C12.8361 7.69995 12.7 7.56381 12.7 7.39995V6.59995C12.7 5.72288 12.4803 4.97324 11.9535 4.4464C11.4267 3.91956 10.677 3.69995 9.79995 3.69995H6.59995C5.72288 3.69995 4.97324 3.91956 4.4464 4.4464C3.91956 4.97324 3.69995 5.72288 3.69995 6.59995Z" stroke="#79533E" stroke-miterlimit="10"/>
<path id="Vector_2" d="M7.3999 6.8999C7.12376 6.8999 6.8999 7.12376 6.8999 7.3999C6.8999 7.67604 7.12376 7.8999 7.3999 7.8999H8.9999C9.27604 7.8999 9.4999 7.67604 9.4999 7.3999C9.4999 7.12376 9.27604 6.8999 8.9999 6.8999H7.3999Z" stroke="#79533E" stroke-miterlimit="10" stroke-linecap="round" stroke-linejoin="round"/>
<path id="Vector_3" d="M7.3999 10.0999C7.12376 10.0999 6.8999 10.3237 6.8999 10.5999C6.8999 10.876 7.12376 11.0999 7.3999 11.0999H10.5999C10.876 11.0999 11.0999 10.876 11.0999 10.5999C11.0999 10.3237 10.876 10.0999 10.5999 10.0999H7.3999Z" stroke="#79533E" stroke-miterlimit="10" stroke-linecap="round" stroke-linejoin="round"/>
</g>
<g id="Vector_4">
<mask id="path-4-outside-1_522_488" maskUnits="userSpaceOnUse" x="0" y="0" width="18" height="18" fill="black">
<rect fill="white" width="18" height="18"/>
<path d="M1 9.664V11.4C1 15.4 2.6 17 6.6 17H11.4C15.4 17 17 15.4 17 11.4V6.6C17 2.6 15.4 1 11.4 1H6.6C2.6 1 1 2.6 1 6.6"/>
</mask>
<path d="M2 9.664C2 9.11172 1.55228 8.664 1 8.664C0.447715 8.664 0 9.11172 0 9.664H2ZM0 6.6C0 7.15228 0.447715 7.6 1 7.6C1.55228 7.6 2 7.15228 2 6.6H0ZM0 9.664V11.4H2V9.664H0ZM0 11.4C0 13.4986 0.413602 15.2278 1.59289 16.4071C2.77218 17.5864 4.50137 18 6.6 18V16C4.69863 16 3.62782 15.6136 3.00711 14.9929C2.3864 14.3722 2 13.3014 2 11.4H0ZM6.6 18H11.4V16H6.6V18ZM11.4 18C13.4986 18 15.2278 17.5864 16.4071 16.4071C17.5864 15.2278 18 13.4986 18 11.4H16C16 13.3014 15.6136 14.3722 14.9929 14.9929C14.3722 15.6136 13.3014 16 11.4 16V18ZM18 11.4V6.6H16V11.4H18ZM18 6.6C18 4.50137 17.5864 2.77218 16.4071 1.59289C15.2278 0.413602 13.4986 0 11.4 0V2C13.3014 2 14.3722 2.3864 14.9929 3.00711C15.6136 3.62782 16 4.69863 16 6.6H18ZM11.4 0H6.6V2H11.4V0ZM6.6 0C4.50137 0 2.77218 0.413602 1.59289 1.59289C0.413602 2.77218 0 4.50137 0 6.6H2C2 4.69863 2.3864 3.62782 3.00711 3.00711C3.62782 2.3864 4.69863 2 6.6 2V0Z" fill="#79533E" mask="url(#path-4-outside-1_522_488)"/>
</g>
</g>
</g>
</g>
</svg>
