<svg width="24" height="24" viewBox="0 0 24 24" fill="none" xmlns="http://www.w3.org/2000/svg">
<g id="ph:shopping-cart-simple-light">
<path id="Vector" d="M8.8125 20.25C8.8125 20.5096 8.73552 20.7633 8.5913 20.9792C8.44708 21.195 8.2421 21.3633 8.00227 21.4626C7.76244 21.5619 7.49854 21.5879 7.24394 21.5373C6.98934 21.4866 6.75548 21.3616 6.57192 21.1781C6.38837 20.9945 6.26336 20.7607 6.21272 20.5061C6.16208 20.2515 6.18807 19.9876 6.28741 19.7477C6.38675 19.5079 6.55497 19.3029 6.77081 19.1587C6.98665 19.0145 7.24041 18.9375 7.5 18.9375C7.8481 18.9375 8.18194 19.0758 8.42808 19.3219C8.67422 19.5681 8.8125 19.9019 8.8125 20.25ZM17.25 18.9375C16.9904 18.9375 16.7367 19.0145 16.5208 19.1587C16.305 19.3029 16.1367 19.5079 16.0374 19.7477C15.9381 19.9876 15.9121 20.2515 15.9627 20.5061C16.0134 20.7607 16.1384 20.9945 16.3219 21.1781C16.5055 21.3616 16.7393 21.4866 16.9939 21.5373C17.2485 21.5879 17.5124 21.5619 17.7523 21.4626C17.9921 21.3633 18.1971 21.195 18.3413 20.9792C18.4855 20.7633 18.5625 20.5096 18.5625 20.25C18.5625 19.9019 18.4242 19.5681 18.1781 19.3219C17.9319 19.0758 17.5981 18.9375 17.25 18.9375ZM21.5372 6.915L18.8634 15.6066C18.7353 16.0286 18.4746 16.3981 18.12 16.6603C17.7654 16.9226 17.3357 17.0636 16.8947 17.0625H7.88156C7.43311 17.0608 6.9973 16.9137 6.63959 16.6433C6.28188 16.3728 6.02159 15.9935 5.89781 15.5625L2.50781 3.69844C2.49658 3.65916 2.47283 3.62463 2.44017 3.60009C2.40751 3.57555 2.36773 3.56235 2.32687 3.5625H0.75C0.600816 3.5625 0.457742 3.50324 0.352252 3.39775C0.246763 3.29226 0.1875 3.14918 0.1875 3C0.1875 2.85082 0.246763 2.70774 0.352252 2.60225C0.457742 2.49676 0.600816 2.4375 0.75 2.4375H2.32687C2.61184 2.43827 2.88886 2.53143 3.11638 2.703C3.34391 2.87457 3.50965 3.1153 3.58875 3.38906L4.38844 6.1875H21C21.0879 6.18759 21.1746 6.20829 21.2531 6.24795C21.3316 6.28762 21.3997 6.34513 21.4519 6.41587C21.5042 6.48661 21.5391 6.56862 21.5539 6.6553C21.5687 6.74198 21.563 6.83093 21.5372 6.915ZM20.2388 7.3125H4.71L6.97969 15.2578C7.03572 15.4537 7.15407 15.626 7.3168 15.7487C7.47953 15.8713 7.67779 15.9376 7.88156 15.9375H16.8919C17.0924 15.9375 17.2877 15.8733 17.449 15.7541C17.6103 15.635 17.7292 15.4673 17.7881 15.2756L20.2388 7.3125Z" fill="#79533E"/>
</g>
</svg>
