<svg width="24" height="24" viewBox="0 0 24 24" fill="none" xmlns="http://www.w3.org/2000/svg">
<g id="streamline:computer-voice-mail-mic-audio-mike-music-microphone">
<g id="Group">
<path id="Vector" d="M15.0052 3.49479L14.4749 4.02512L15.0052 3.49479C14.2082 2.69777 13.1272 2.25 12 2.25C10.8728 2.25 9.79182 2.69777 8.99479 3.49479C8.19777 4.29182 7.75 5.37282 7.75 6.49999V11.4C7.75 12.5271 8.19777 13.6082 8.99479 14.4052C9.79182 15.2022 10.8728 15.65 12 15.65C13.1272 15.65 14.2082 15.2022 15.0052 14.4052C15.8022 13.6082 16.25 12.5271 16.25 11.4V6.49999C16.25 5.37282 15.8022 4.29182 15.0052 3.49479Z" stroke="#818181" stroke-width="1.5" stroke-linecap="round" stroke-linejoin="round"/>
<g id="Vector_2">
<mask id="path-2-outside-1_481_232" maskUnits="userSpaceOnUse" x="3" y="10.0999" width="18" height="13" fill="black">
<rect fill="white" x="3" y="10.0999" width="18" height="13"/>
<path d="M19 12.0999C19.0018 12.9277 18.8401 13.7478 18.5242 14.5129C18.2082 15.2781 17.7443 15.9734 17.1589 16.5587C16.5735 17.1441 15.8783 17.6081 15.1131 17.924C14.3479 18.24 13.5278 18.4017 12.7 18.3998H11.3C10.4722 18.4017 9.6521 18.24 8.88692 17.924C8.12174 17.6081 7.4265 17.1441 6.84112 16.5587C6.25575 15.9734 5.79176 15.2781 5.47581 14.5129C5.15986 13.7478 4.99817 12.9277 5.00002 12.0999M12 18.3998V21.1998V18.3998Z"/>
</mask>
<path d="M20.5 12.0965C20.4981 11.2681 19.8251 10.598 18.9966 10.5999C18.1682 10.6017 17.4981 11.2748 17.5 12.1032L20.5 12.0965ZM12.7 18.3998L12.7033 16.8998H12.7V18.3998ZM11.3 18.3998V16.8998L11.2967 16.8998L11.3 18.3998ZM6.50001 12.1032C6.50186 11.2748 5.83179 10.6017 5.00336 10.5999C4.17494 10.598 3.50187 11.2681 3.50002 12.0965L6.50001 12.1032ZM13.5 18.3998C13.5 17.5714 12.8284 16.8998 12 16.8998C11.1716 16.8998 10.5 17.5714 10.5 18.3998H13.5ZM10.5 21.1998C10.5 22.0283 11.1716 22.6998 12 22.6998C12.8284 22.6998 13.5 22.0283 13.5 21.1998H10.5ZM17.5 12.1032C17.5014 12.7335 17.3783 13.3579 17.1377 13.9405L19.9106 15.0854C20.302 14.1376 20.5023 13.1219 20.5 12.0965L17.5 12.1032ZM17.1377 13.9405C16.8972 14.523 16.5439 15.0524 16.0982 15.4981L18.2195 17.6194C18.9446 16.8943 19.5193 16.0332 19.9106 15.0854L17.1377 13.9405ZM16.0982 15.4981C15.6525 15.9438 15.1232 16.297 14.5406 16.5376L15.6856 19.3105C16.6333 18.9192 17.4945 18.3445 18.2195 17.6194L16.0982 15.4981ZM14.5406 16.5376C13.958 16.7781 13.3336 16.9012 12.7033 16.8998L12.6967 19.8998C13.722 19.9021 14.7378 19.7018 15.6856 19.3105L14.5406 16.5376ZM12.7 16.8998H11.3V19.8998H12.7V16.8998ZM11.2967 16.8998C10.6664 16.9012 10.042 16.7781 9.4594 16.5376L8.31444 19.3105C9.26221 19.7018 10.278 19.9021 11.3033 19.8998L11.2967 16.8998ZM9.4594 16.5376C8.87681 16.297 8.34747 15.9438 7.90178 15.4981L5.78046 17.6194C6.50552 18.3445 7.36666 18.9192 8.31444 19.3105L9.4594 16.5376ZM7.90178 15.4981C7.45609 15.0524 7.10283 14.523 6.86227 13.9405L4.08936 15.0854C4.4807 16.0332 5.0554 16.8943 5.78046 17.6194L7.90178 15.4981ZM6.86227 13.9405C6.62172 13.3579 6.49861 12.7335 6.50001 12.1032L3.50002 12.0965C3.49773 13.1219 3.69801 14.1376 4.08936 15.0854L6.86227 13.9405ZM10.5 18.3998V21.1998H13.5V18.3998H10.5Z" fill="#818181" mask="url(#path-2-outside-1_481_232)"/>
</g>
</g>
</g>
</svg>
